<svg xmlns="http://www.w3.org/2000/svg" viewBox="0 0 1500 1000" width="1500" height="1000">
	<defs>
		<clipPath clipPathUnits="userSpaceOnUse" id="cp1">
			<path d="M0 0L1500 0L1500 1000L0 1000Z" />
		</clipPath>
	</defs>
	<style>
		tspan { white-space:pre }
		.shp0 { fill: #ffffff } 
		.shp1 { fill: #f2f1ef } 
		.shp2 { fill: #1e44c1 } 
		.shp3 { fill: #0b2584 } 
		.shp4 { fill: #ffbc49 } 
		.shp5 { fill: #fda939 } 
		.shp6 { fill: #6673ff } 
		.shp7 { fill: #1730a3 } 
		.shp8 { fill: none;stroke: #f49c1c;stroke-width: 2 } 
		.shp9 { fill: #162fa2 } 
		.shp10 { fill: #1730a3;stroke: #1730a3;stroke-width: 0.5 } 
		.shp11 { fill: #dddddd } 
		.shp12 { fill: #f7a732 } 
		.shp13 { fill: #f49c1c } 
		.shp14 { fill: #5a6cf2 } 
		.shp15 { fill: #6774ff } 
		.shp16 { fill: #94a1ff } 
		.shp17 { fill: none;stroke: #1730a3;stroke-linecap:round;stroke-linejoin:round;stroke-width: 12 } 
		.shp18 { fill: #253fb8 } 
		.shp19 { fill: none;stroke: #253fb8;stroke-width: 4 } 
		.shp20 { fill: #97a7f3 } 
	</style>
	<g id="Page 1" clip-path="url(#cp1)">
		<path id="Path 1" class="shp0" d="M-184 1100.67L1725 1100.67L1725 -172L-184 -172L-184 1100.67Z" />
		<path id="Path 2" class="shp1" d="M1227.74 238.18C873.22 242.52 813.44 107.7 592.21 94.91C208.53 72.73 -58.47 400.42 37.05 762.95C132.58 1125.48 512.49 946.5 512.49 946.5C786.66 836.79 809.95 899.5 1184.92 783.77C1559.89 668.05 1582.25 233.84 1227.74 238.18Z" />
		<path id="Path 3" class="shp2" d="M82.49 574.13L198.47 574.13C201.28 574.13 203.55 576.4 203.55 579.2C203.55 582.01 201.28 584.28 198.47 584.28L82.49 584.28C79.69 584.28 77.42 582.01 77.42 579.2C77.42 576.4 79.69 574.13 82.49 574.13ZM235.39 574.11L258.05 574.11C260.85 574.11 263.12 576.38 263.12 579.18C263.12 581.99 260.85 584.26 258.05 584.26L235.39 584.26C232.58 584.26 230.31 581.99 230.31 579.18C230.31 576.38 232.58 574.11 235.39 574.11ZM232.67 609.47L258.04 609.47C260.84 609.47 263.11 611.74 263.11 614.54C263.11 617.34 260.84 619.62 258.04 619.62L232.67 619.62C229.87 619.62 227.6 617.34 227.6 614.54C227.6 611.74 229.87 609.47 232.67 609.47ZM181.93 609.47L207.3 609.47C210.1 609.47 212.38 611.74 212.38 614.54C212.38 617.34 210.1 619.62 207.3 619.62L181.93 619.62C179.13 619.62 176.86 617.34 176.86 614.54C176.86 611.74 179.13 609.47 181.93 609.47ZM142.06 609.47L156.57 609.47C159.37 609.47 161.64 611.74 161.64 614.54C161.64 617.34 159.37 619.62 156.57 619.62L142.06 619.62C139.25 619.62 136.98 617.34 136.98 614.54C136.98 611.74 139.25 609.47 142.06 609.47Z" />
		<path id="Path 4" class="shp1" d="M1009.83 22.09C1009.83 22.09 768.41 -10.25 796.7 87.46C824.99 185.17 1220.46 261.53 1222.01 168.04C1223.57 74.55 1009.83 22.09 1009.83 22.09Z" />
		<path id="Path 5" class="shp2" d="M954.41 802.69L966.61 802.69L978.36 795.74C973.26 756.15 1000.3 719.63 1030.06 693.02C1059.82 666.42 1094.7 643.66 1114.4 608.94C1122.62 594.47 1125.73 572.26 1111.01 564.51C1105.86 561.79 1099.7 561.76 1093.94 562.62C1058.35 567.95 1059.42 590.98 1023.44 590.54C1010.98 590.39 996.58 582.73 996.59 570.27C996.59 565.58 998.7 561.16 1000.89 557.01C1029.64 502.68 1052.3 476.88 1093.86 431.59C1117.3 406.06 1139.23 372.8 1131.15 339.09C1130.28 335.5 1128.98 331.82 1126.2 329.39C1120.4 324.3 1111.33 326.88 1104.56 330.58C1071.66 348.51 1082.02 348.8 1055.36 375.12C1048.51 381.88 1038.15 388.36 1029.98 383.3C1024.79 380.08 1022.98 373.41 1022.54 367.32C1019.66 327.95 1083.39 264.56 1028.87 262.35C1014.61 261.77 1005.95 285.58 992.46 280.91C981.07 276.97 985.16 259.99 991.04 249.47C999.66 234.08 1007.3 214.03 996.73 199.91C987.45 187.5 967.79 187.21 954.68 195.48C941.57 203.74 933.7 218.11 927.4 232.26C917.22 255.12 909.6 279.23 906.28 304.03C902.2 334.45 903 369.35 880.45 390.17C866.98 402.59 847.79 406.86 829.48 407.19C820.1 407.35 809.67 406.98 802.65 413.19C797.5 417.74 795.48 424.87 794.63 431.7C791.42 457.32 802.19 484.26 822.18 500.62C835.93 511.88 853.43 518.24 865.96 530.84C878.5 543.45 883.53 566.93 869.46 577.79C859.34 585.61 845.06 582.95 832.27 582.98C808.73 583.03 785.03 594.56 772.16 614.26C759.29 633.97 758.63 661.53 772.22 680.75C796.52 715.15 848.03 710.44 887.29 725.7C920.29 738.53 946.06 768.33 954.41 802.69Z" />
		<path id="Path 6" class="shp3" d="M969.18 802.69C894.89 517.05 971.39 209.55 972.17 206.48C972.6 204.8 971.59 203.09 969.91 202.67C968.23 202.24 966.53 203.25 966.1 204.93C965.31 208.02 888.7 515.89 962.72 802.69L969.18 802.69ZM939.77 481.06C940.95 480.66 941.83 479.57 941.89 478.25C946.05 395.34 1026.4 287.33 1027.22 286.26C1028.26 284.87 1027.97 282.91 1026.59 281.86C1025.2 280.83 1023.24 281.11 1022.2 282.49C1018.84 286.97 939.88 393.1 935.63 477.93C935.55 479.66 936.88 481.13 938.6 481.22C939.01 481.24 939.4 481.18 939.77 481.06ZM934.47 554.71C934.6 554.67 934.72 554.63 934.84 554.58C936.44 553.92 937.2 552.09 936.54 550.49C907.26 479.51 819.5 436.58 815.77 434.78C814.21 434.03 812.34 434.69 811.59 436.25C810.84 437.81 811.49 439.68 813.05 440.44C813.94 440.86 902.39 484.15 930.75 552.88C931.36 554.36 932.97 555.12 934.47 554.71ZM935.58 585.05C936.59 584.71 937.4 583.86 937.64 582.74C952.26 515.78 1106.02 369.98 1107.57 368.51C1108.83 367.32 1108.89 365.34 1107.7 364.08C1106.52 362.82 1104.54 362.76 1103.27 363.95C1096.88 369.99 946.55 512.56 931.51 581.41C931.14 583.1 932.22 584.77 933.91 585.14C934.48 585.26 935.06 585.22 935.58 585.05ZM949.33 721.8C949.38 721.78 949.43 721.77 949.48 721.75C951.09 721.12 951.88 719.3 951.25 717.69C920.76 639.58 793.12 644.44 787.7 644.69C785.97 644.77 784.63 646.24 784.71 647.96C784.79 649.69 786.25 651.03 787.98 650.95C789.27 650.9 916.55 646.04 945.41 719.97C946.02 721.53 947.76 722.33 949.33 721.8ZM954.63 751.29C955.82 750.89 956.7 749.79 956.76 748.45C960.04 674.32 1090.99 596.2 1092.31 595.42C1093.8 594.54 1094.29 592.62 1093.42 591.13C1092.54 589.64 1090.61 589.14 1089.12 590.02C1083.6 593.28 953.92 670.65 950.49 748.18C950.42 749.91 951.76 751.37 953.49 751.45C953.89 751.47 954.27 751.41 954.63 751.29Z" />
		<path id="Path 7" class="shp4" d="M370.99 271.69C370.99 271.69 372.04 273.16 373.83 276C375.63 278.84 378.08 283.13 381.1 288.61C384.1 294.11 387.45 300.94 391.02 308.88C394.56 316.84 398.12 325.99 401.85 336.02C405.41 346.1 408.93 357.14 412.07 368.97C415.13 380.82 418.02 393.39 420.37 406.52C422.89 419.62 424.55 433.31 426.15 447.2C427.45 461.13 428.5 475.31 428.74 489.52C428.93 496.62 429.11 503.72 428.94 510.81C428.9 514.34 428.86 517.88 428.82 521.4C428.67 524.92 428.52 528.42 428.37 531.92C428.21 535.41 428.05 538.9 427.89 542.36C427.63 545.82 427.37 549.26 427.11 552.68C426.63 559.52 426.17 566.28 425.37 572.9C424.58 579.52 424.12 586.07 423.11 592.41C422.19 598.77 421.33 604.99 420.57 611.06C418.52 623.11 416.93 634.59 414.67 645.04C413.65 650.29 412.67 655.31 411.74 660.1C410.7 664.86 409.7 669.38 408.77 673.62C406.92 682.11 405.27 689.52 403.62 695.55C402.07 701.6 400.85 706.36 400.02 709.6C399.64 711.23 399.23 712.45 399.14 713.33C399.33 713.83 400.44 714.5 401.27 714.98C402.43 715.56 403.02 715.85 403.02 715.85C403.02 715.85 403.67 715.92 404.95 716.07C405.9 716.12 407.19 716.16 407.61 715.83C407.99 715.03 408.28 713.76 408.8 712.15C409.78 708.91 411.21 704.16 413.04 698.11C414.96 692.09 416.96 684.68 419.2 676.16C420.33 671.91 421.53 667.37 422.8 662.6C423.89 657.77 425.03 652.7 426.23 647.41C428.75 636.85 430.61 625.23 432.96 613.01C434.89 600.71 436.7 587.71 437.99 574.17C438.79 567.43 439.25 560.53 439.73 553.55C439.95 550.07 440.17 546.55 440.39 543.02C440.5 539.49 440.6 535.93 440.7 532.36C440.8 528.8 440.9 525.22 440.99 521.63C440.98 518.03 440.96 514.43 440.94 510.81C440.99 503.59 440.71 496.34 440.38 489.09C439.77 474.6 438.33 460.15 436.63 445.98C434.7 431.83 432.34 417.96 429.31 404.71C426.52 391.4 422.79 378.78 419.05 366.92C415.22 355.07 411.05 344.06 406.89 334.05C398.47 314.03 389.4 298.33 382.62 287.71C375.77 277.11 370.99 271.69 370.99 271.69ZM405.06 344.12C405.06 344.12 412.46 334.84 401.98 303.28C391.5 271.73 393.83 226.98 411.76 235.35C429.69 243.72 422.28 324.05 405.06 344.12ZM424.84 411.89C424.84 411.89 433.22 387.53 437.14 353.16C441.32 316.52 440.96 298.25 456.05 312.18C471.13 326.09 444.74 396.85 424.84 411.89ZM390.38 306.7C390.38 306.7 362.68 235.43 327.35 240.85C292.02 246.28 383 290.24 390.38 306.7ZM414.94 360.6C414.94 360.6 358.11 276.37 329.25 295.9C300.4 315.44 411.54 347.13 414.94 360.6ZM430.38 406.62C430.38 406.62 366.52 337.68 348.12 362.28C327.65 389.66 423.34 388.23 430.38 406.62ZM434.75 485.3C434.75 485.3 460.31 392.49 473.18 380.54C486.04 368.59 491.09 413.52 434.75 485.3ZM430.92 442.64C430.92 442.64 377.92 387.7 363.1 389.1C348.28 390.5 359.37 432.52 430.92 442.64ZM432.86 596.3C432.86 596.3 390.35 528.39 376.02 526.38C361.69 524.38 366.13 569.54 432.86 596.3ZM417.05 661.38C417.05 661.38 400.56 590.04 386.2 589.44C371.84 588.84 357.56 639 417.05 661.38ZM414.23 680.8C414.23 680.8 470.14 576.67 489.02 569.43C507.91 562.18 502.12 623.81 414.23 680.8ZM431.78 573.42C431.78 573.42 467.61 469.22 486.5 461.82C505.39 454.43 514.04 515.83 431.78 573.42ZM431.55 525.96C431.55 525.96 403.88 450.59 375.18 467.34C349.54 482.29 431.55 525.96 431.55 525.96Z" />
		<path id="Path 8" class="shp5" d="M944.27 772.34C925.59 751.74 922.84 718.39 937.9 695.01C951.98 673.15 980.2 657.39 979.86 631.38C979.75 622.98 976.42 614.96 975.48 606.61C972.93 583.97 988.05 563.16 1004.72 547.65C1021.4 532.13 1040.91 518.66 1051.91 498.71C1070.03 465.82 1060.34 425.45 1060.57 387.9C1060.69 367.93 1069.15 342.75 1089.11 341.99C1105.86 341.36 1117.27 359.62 1119.44 376.24C1121.61 392.86 1118.48 410.26 1123.77 426.17C1132.22 451.54 1159.31 465.76 1173.09 488.68C1188.22 513.86 1184.1 549.03 1163.55 570.03C1151.3 582.55 1134.71 589.75 1120.61 600.17C1106.52 610.59 1094.15 626.82 1096.89 644.13C1099.99 663.69 1120.91 676.51 1124.72 695.94C1127.52 710.18 1120.33 724.56 1111.26 735.89C1085.41 768.12 989.55 821.4 944.27 772.34Z" />
		<path id="Path 9" class="shp4" d="M1092.4 389.44C1092.4 389.44 1092.31 389.87 1092.16 390.69C1092.02 391.53 1091.71 392.74 1091.54 394.37C1091.06 397.6 1090.7 402.39 1090.98 408.49C1091.25 414.58 1092.11 421.95 1093.54 430.32C1094.92 438.7 1096.81 448.09 1098.38 458.4C1099.92 468.69 1101.14 479.97 1100.64 491.86C1100.17 503.73 1097.74 516.21 1092.6 528.08C1087.74 540.1 1078.26 549.9 1067.73 558.44C1057.25 567.07 1045.41 574.82 1036.13 585.83C1031.58 591.33 1027.79 597.71 1025.85 604.71C1023.81 611.68 1023.38 618.99 1024.05 626.02C1024.67 633.05 1026.45 639.92 1028.32 646.35C1030.15 652.61 1031.03 658.98 1030.99 665.21C1030.87 677.75 1026.34 689.35 1020.29 699.26C1014.26 709.24 1007.05 717.88 1000.7 726.25C994.31 734.59 988.65 742.77 985.16 751.09C981.59 759.38 980.55 767.68 981.17 774.28C981.75 780.92 983.49 785.85 984.76 789.07C985.4 790.69 985.95 791.91 986.34 792.71C986.72 793.52 986.92 793.94 986.92 793.94L994.03 790.35C994.03 790.35 993.85 789.98 993.5 789.27C993.14 788.57 992.64 787.51 992.05 786.11C990.89 783.31 989.34 779.1 988.76 773.58C988.16 768.08 988.83 761.25 991.83 753.84C994.78 746.42 999.91 738.59 1006.06 730.26C1012.16 721.9 1019.36 712.99 1025.53 702.34C1031.72 691.82 1036.53 678.96 1036.39 665.23C1036.32 658.42 1035.21 651.53 1033.15 644.93C1031.15 638.5 1029.38 632.19 1028.64 625.56C1027.88 618.97 1028.15 612.25 1029.88 605.85C1031.52 599.42 1034.86 593.49 1039.04 588.2C1047.57 577.6 1059.14 569.6 1069.59 560.65C1074.83 556.18 1079.85 551.43 1084.19 546.16C1088.55 540.95 1092.07 534.98 1094.51 528.88C1099.57 516.68 1101.85 503.93 1102.14 491.91C1102.48 479.87 1101.08 468.54 1099.39 458.24C1097.66 447.92 1095.64 438.56 1094.14 430.22C1092.59 421.88 1091.62 414.55 1091.26 408.48C1090.89 402.4 1091.18 397.61 1091.61 394.38C1091.76 392.75 1092.05 391.53 1092.17 390.7C1092.32 389.87 1092.4 389.44 1092.4 389.44ZM1059.08 338.74C1059.08 338.74 1058.03 340.21 1056.24 343.05C1054.44 345.89 1051.99 350.18 1048.97 355.66C1045.98 361.16 1042.62 367.99 1039.05 375.93C1035.51 383.89 1031.95 393.04 1028.22 403.06C1024.66 413.15 1021.14 424.19 1018 436.02C1014.94 447.87 1012.05 460.44 1009.7 473.57C1007.18 486.67 1005.52 500.35 1003.92 514.25C1002.62 528.18 1001.57 542.36 1001.33 556.57C1001.13 563.67 1000.96 570.77 1001.13 577.85C1001.17 581.39 1001.21 584.93 1001.25 588.45C1001.4 591.97 1001.55 595.47 1001.7 598.97C1001.86 602.46 1002.02 605.95 1002.17 609.41C1002.44 612.87 1002.7 616.3 1002.96 619.73C1003.44 626.57 1003.9 633.33 1004.71 639.95C1005.49 646.57 1005.95 653.12 1006.96 659.46C1007.88 665.81 1008.74 672.03 1009.5 678.11C1011.55 690.16 1013.14 701.63 1015.4 712.09C1016.42 717.33 1017.4 722.36 1018.33 727.15C1019.37 731.91 1020.36 736.42 1021.3 740.67C1023.15 749.16 1024.81 756.57 1026.45 762.6C1028 768.65 1029.22 773.41 1030.05 776.65C1030.44 778.28 1030.85 779.5 1030.93 780.37C1030.74 780.88 1029.63 781.55 1028.8 782.03C1027.64 782.6 1027.05 782.89 1027.05 782.89C1027.05 782.89 1026.4 782.97 1025.12 783.12C1024.17 783.17 1022.88 783.2 1022.46 782.88C1022.08 782.08 1021.79 780.81 1021.28 779.2C1020.3 775.96 1018.86 771.21 1017.03 765.16C1015.11 759.14 1013.11 751.73 1010.87 743.21C1009.74 738.95 1008.54 734.42 1007.27 729.65C1006.18 724.82 1005.04 719.75 1003.84 714.46C1001.32 703.9 999.46 692.28 997.11 680.06C995.19 667.76 993.37 654.75 992.09 641.22C991.28 634.48 990.82 627.58 990.34 620.6C990.12 617.11 989.9 613.6 989.68 610.07C989.58 606.54 989.47 602.98 989.37 599.41C989.27 595.85 989.17 592.27 989.08 588.68C989.09 585.08 989.11 581.47 989.13 577.86C989.08 570.64 989.36 563.39 989.69 556.14C990.31 541.65 991.74 527.2 993.44 513.03C995.37 498.88 997.74 485.01 1000.76 471.76C1003.55 458.45 1007.28 445.83 1011.01 433.96C1014.85 422.12 1019.02 411.11 1023.18 401.09C1031.6 381.08 1040.67 365.38 1047.45 354.76C1054.31 344.16 1059.08 338.74 1059.08 338.74ZM1025.01 411.17C1025.01 411.17 1017.61 401.89 1028.09 370.33C1038.57 338.78 1036.24 294.03 1018.31 302.4C1000.38 310.77 1007.79 391.1 1025.01 411.17ZM1005.23 478.94C1005.23 478.94 996.85 454.58 992.93 420.21C988.75 383.57 989.11 365.3 974.03 379.22C958.94 393.14 985.33 463.89 1005.23 478.94ZM1039.69 373.75C1039.69 373.75 1067.39 302.48 1102.72 307.9C1138.05 313.33 1047.08 357.29 1039.69 373.75ZM1015.13 427.65C1015.13 427.65 1071.96 343.42 1100.82 362.95C1129.67 382.49 1018.54 414.18 1015.13 427.65ZM999.7 473.67C999.7 473.67 1063.55 404.72 1081.95 429.33C1102.42 456.71 1006.74 455.28 999.7 473.67ZM995.32 552.35C995.32 552.35 969.76 459.54 956.9 447.59C944.03 435.64 938.98 480.57 995.32 552.35ZM999.15 509.68C999.15 509.68 1052.15 454.75 1066.97 456.15C1081.79 457.55 1070.7 499.57 999.15 509.68ZM997.21 663.35C997.21 663.35 1039.72 595.43 1054.05 593.43C1068.38 591.43 1063.94 636.58 997.21 663.35ZM1013.02 728.43C1013.02 728.43 1029.51 657.09 1043.87 656.49C1058.23 655.89 1072.52 706.05 1013.02 728.43ZM1015.84 747.85C1015.84 747.85 959.93 643.72 941.05 636.48C922.16 629.23 927.95 690.86 1015.84 747.85ZM998.29 640.47C998.29 640.47 962.46 536.27 943.57 528.87C924.68 521.48 916.03 582.88 998.29 640.47ZM998.52 593.01C998.52 593.01 1026.19 517.64 1054.89 534.39C1080.53 549.34 998.52 593.01 998.52 593.01Z" />
		<path id="Path 10" class="shp2" d="M385.63 793.21C380.03 753.68 344.27 725.65 308.51 707.91C272.74 690.16 233.08 677.48 204.86 649.24C193.1 637.48 184.2 616.89 196.33 605.5C200.57 601.52 206.5 599.85 212.29 599.15C248.01 594.84 253.1 617.33 287.67 607.35C299.64 603.89 311.49 592.68 308.17 580.68C306.92 576.15 303.72 572.45 300.5 569.04C258.36 524.29 229.66 505.43 177.56 472.81C148.18 454.42 118.21 428.18 117.05 393.54C116.93 389.85 117.21 385.95 119.24 382.87C123.48 376.42 132.91 376.5 140.42 378.26C176.9 386.82 166.99 389.85 199.69 408.14C208.08 412.84 219.79 416.34 226.32 409.28C230.47 404.81 230.44 397.89 229.25 391.91C221.57 353.19 143.29 308.99 195.26 292.39C208.86 288.04 223.54 308.69 235.3 300.61C245.24 293.78 236.78 278.5 228.31 269.92C215.92 257.37 203.23 240.07 209.67 223.65C215.32 209.22 234.2 203.72 249.03 208.21C263.87 212.69 275.27 224.45 285.11 236.43C300.99 255.77 314.74 276.98 324.53 300.01C336.54 328.25 345.04 362.12 372.31 376.2C388.59 384.6 408.22 383.61 425.97 379.06C435.05 376.74 445 373.6 453.42 377.73C459.6 380.75 463.44 387.08 466.08 393.44C475.97 417.29 472.74 446.12 457.82 467.2C447.55 481.71 432.37 492.49 423.64 507.97C414.9 523.45 416.29 547.43 432.73 554.16C444.57 559.01 457.63 552.66 469.97 549.29C492.67 543.08 518.58 547.9 536.22 563.48C553.87 579.06 561.82 605.45 553.83 627.6C539.54 667.21 488.63 676.35 454.83 701.49C424.67 723.93 407.43 762.65 410.95 800.08" />
		<path id="Path 11" class="shp3" d="M399.29 801.44C397.66 801.35 396.36 800.01 396.34 798.36C392.4 502.91 236.66 226.22 235.09 223.46C234.23 221.96 234.76 220.04 236.26 219.19C237.77 218.33 239.68 218.85 240.54 220.36C242.12 223.13 398.65 501.17 402.61 798.27C402.63 800 401.25 801.43 399.52 801.45C399.44 801.45 399.37 801.45 399.29 801.44ZM339.26 479.58C338.01 479.5 336.88 478.68 336.46 477.43C310.44 398.61 204.28 315.82 203.21 314.99C201.84 313.94 201.59 311.97 202.65 310.6C203.71 309.23 205.68 308.98 207.05 310.03C211.48 313.46 315.79 394.81 342.42 475.46C342.96 477.11 342.07 478.88 340.42 479.42C340.04 479.55 339.64 479.6 339.26 479.58ZM363.92 549.17C363.8 549.17 363.67 549.17 363.54 549.15C361.82 548.94 360.6 547.37 360.81 545.65C370.19 469.45 443.4 404.75 446.51 402.03C447.82 400.89 449.8 401.03 450.93 402.33C452.07 403.63 451.94 405.61 450.64 406.75C449.89 407.4 376.11 472.62 367.03 546.42C366.84 548.01 365.49 549.17 363.92 549.17ZM370.92 578.72C369.86 578.65 368.85 578.06 368.32 577.04C336.44 516.37 149.47 416.64 147.59 415.64C146.06 414.83 145.47 412.93 146.29 411.4C147.1 409.87 148.99 409.29 150.53 410.1C158.29 414.22 341.09 511.75 373.87 574.13C374.67 575.66 374.09 577.56 372.55 578.36C372.03 578.63 371.47 578.75 370.92 578.72ZM393.98 714.21C393.93 714.21 393.88 714.2 393.83 714.2C392.1 714.02 390.86 712.48 391.03 710.76C399.69 627.35 524.04 598.14 529.32 596.94C531.02 596.56 532.69 597.62 533.08 599.3C533.46 600.99 532.4 602.67 530.71 603.05C529.46 603.34 405.46 632.47 397.27 711.4C397.09 713.07 395.64 714.3 393.98 714.21ZM396.7 744.05C395.45 743.97 394.31 743.15 393.9 741.88C371.05 671.28 224.05 630.74 222.57 630.35C220.9 629.89 219.91 628.17 220.36 626.5C220.82 624.83 222.54 623.84 224.21 624.29C230.39 625.97 375.97 666.12 399.86 739.95C400.4 741.6 399.49 743.36 397.85 743.9C397.47 744.02 397.08 744.07 396.7 744.05Z" />
		<path id="Path 12" class="shp6" d="M694.25 416.59C694.25 416.59 688.18 389.7 691.4 389.39C694.62 389.08 700.17 400.65 700.17 400.65C700.17 400.65 699.06 365.94 703.88 365.32C708.69 364.69 723.86 373.76 723.86 390.95C723.86 408.15 720.9 425.35 720.9 425.35L694.25 416.59Z" />
		<path id="Path 13" class="shp5" d="M435.03 761.39C444.78 738.2 437.1 708.9 417.23 693.47C398.64 679.04 369.81 674.07 362.28 651.77C359.85 644.57 360.28 636.72 358.57 629.31C353.95 609.22 334.79 596 315.89 587.77C296.99 579.54 276.29 573.9 260.9 560.18C235.54 537.56 231.68 500.18 220.2 468.2C214.09 451.19 199.3 432.23 182.04 437.59C167.55 442.09 163.3 461.1 166.44 475.94C169.58 490.78 177.49 504.69 177.75 519.86C178.17 544.06 159.31 564.34 154.45 588.05C149.1 614.09 163.19 642.87 187.04 654.62C201.27 661.62 217.59 662.78 232.75 667.44C247.91 672.1 263.35 682.23 266.22 697.83C269.45 715.46 255.45 732.69 258.04 750.42C259.93 763.42 270.38 773.54 281.54 780.47C313.29 800.22 411.13 816.88 435.03 761.39Z" />
		<path id="Path 14" class="shp4" d="M193.49 479.08C193.49 479.08 193.69 479.42 194.07 480.08C194.44 480.75 195.07 481.69 195.71 483.03C197.09 485.64 198.84 489.63 200.43 494.92C202.03 500.2 203.51 506.75 204.8 514.32C206.14 521.89 207.36 530.47 209.12 539.74C210.9 548.99 213.25 558.98 217.25 568.98C221.21 578.97 227.04 588.89 234.99 597.48C242.76 606.28 253.8 611.8 265.35 615.92C276.89 620.14 289.33 623.2 300.55 629.8C306.09 633.13 311.24 637.44 315.01 642.83C318.84 648.16 321.41 654.28 322.95 660.48C324.53 666.66 325.07 673.07 325.42 679.11C325.73 685 326.89 690.71 328.81 696.02C332.68 706.69 340.03 715.23 348.17 721.86C356.32 728.57 365.07 733.77 373.01 739.01C380.97 744.21 388.26 749.49 393.74 755.55C399.28 761.55 402.66 768.32 404.12 774.14C405.62 779.98 405.62 784.71 405.5 787.85C405.44 789.42 405.34 790.62 405.25 791.43C405.16 792.23 405.12 792.65 405.12 792.65L397.97 791.72C397.97 791.72 398.02 791.36 398.1 790.65C398.19 789.93 398.31 788.88 398.38 787.51C398.54 784.77 398.6 780.71 397.43 775.83C396.29 770.95 393.66 765.32 388.87 759.9C384.13 754.45 377.39 749.31 369.64 744.05C361.92 738.74 353.09 733.3 344.63 726.07C336.18 718.95 328.21 709.42 324.2 697.66C322.22 691.82 321.09 685.6 320.87 679.35C320.64 673.26 320.26 667.35 318.89 661.46C317.56 655.62 315.31 649.96 311.91 645.01C308.58 640.01 303.94 635.96 298.78 632.7C288.32 626.22 276.04 622.86 264.43 618.37C258.61 616.13 252.9 613.58 247.61 610.38C242.32 607.25 237.52 603.21 233.61 598.73C225.62 589.85 219.84 579.65 215.98 569.48C212.07 559.3 209.86 549.21 208.21 539.9C206.58 530.58 205.5 521.99 204.27 514.41C203.08 506.83 201.71 500.28 200.19 494.99C198.67 489.69 196.98 485.69 195.65 483.06C195.04 481.72 194.42 480.76 194.06 480.09C193.69 479.42 193.49 479.08 193.49 479.08Z" />
		<path id="Path 15" class="shp7" d="M543.24 444.02C534.44 439.12 514.74 416.22 479.91 442.85C469.31 450.96 458.66 461.85 460.13 474.73C459.84 476.24 459.62 477.76 459.54 479.3C459.14 486.76 460.98 494.26 460.02 501.67C458 517.34 444.44 528.57 436.4 542.16C422.6 565.5 426.27 596.93 442.48 618.66C458.7 640.39 485.74 652.64 512.81 654.17C527.93 655.02 543.67 652.62 556.45 644.49C569.23 636.36 578.49 621.81 577.62 606.69C576.98 595.68 571.27 585.51 570.11 574.54C568.5 559.36 558.88 547.51 562.86 532.78C570.96 502.87 570.31 459.11 543.24 444.02ZM545.16 440.73C533.98 433.98 524.73 426.15 510.82 426.38C491.61 426.71 469.23 441.67 460.11 458.35C455.16 467.41 455.48 478.25 456 488.26C456.86 505.11 451.46 515.13 441.6 528.16C428.09 546 421.37 565.25 425.25 587.79C433.06 633.18 479.43 660.22 523.17 658.01C543.72 656.97 564.75 648.71 575.45 630.14C580.41 621.53 582.33 611.92 580.91 602.09C579.18 590.11 575.21 577.3 572.25 565.54C570.4 558.22 566.93 551.34 566.14 543.78C565.34 536.18 567.94 529.04 569.2 521.61C570.92 511.52 571.66 501.2 570.95 490.98C569.56 471.17 562.82 451.5 545.16 440.73C540.96 438.16 537.12 444.76 541.31 447.32C556.59 456.64 562.04 473.97 563.31 490.98C564.55 507.57 558.9 522.51 558.18 538.64C557.82 546.77 560.71 554.27 563.15 561.88C566.06 571 567 580.46 569.76 589.63C573.26 601.29 575.75 611.77 570.27 623.34C564.47 635.58 553.29 643.69 540.49 647.53C500.51 659.51 449.05 637.7 435.45 597.06C428.39 575.96 431.79 554.36 444.84 536.46C454.39 523.36 464.31 512.04 464.05 494.98C463.82 480.4 461.6 466.99 472.01 455.07C480.09 445.83 492.16 437.42 504.27 434.83C519.61 431.54 529.23 440.04 541.31 447.32C545.53 449.87 549.37 443.27 545.16 440.73Z" />
		<path id="Path 16" class="shp4" d="M624.1 798.51C632.91 763.21 665.16 622.12 628.89 581.1C608.57 558.11 511.57 541.84 511.57 541.84L509.57 542.4C509.57 542.4 403.71 558.11 383.39 581.1C347.12 622.12 389.82 763.21 401.3 798.51L624.1 798.51ZM532.67 543.56C532.67 543.56 643.43 562.61 666.97 471.27C682.02 412.9 681.5 413.94 681.5 413.94L731.14 417.6C731.14 417.6 766.27 629.22 620.89 667.88C445.87 714.43 532.67 543.56 532.67 543.56Z" />
		<path id="Path 17" class="shp6" d="M551.1 495.27C546.48 521.86 538.92 546.08 515.03 546.08C491.14 546.08 471.78 519.32 471.78 495.43C471.78 471.54 491.14 452.18 515.03 452.18C538.92 452.18 557.46 458.68 551.1 495.27ZM519.13 566.8L510.94 566.8C503.46 566.8 497.39 560.73 497.39 553.25L497.39 524.9C497.39 517.42 503.46 511.36 510.94 511.36L519.13 511.36C526.61 511.36 532.68 517.42 532.68 524.9L532.68 553.25C532.68 560.73 526.61 566.8 519.13 566.8Z" />
		<path id="Path 18" class="shp7" d="M517.81 446.71C521.58 457.64 526.11 469.5 536.18 475.18C538.59 476.54 541.22 477.47 543.62 478.85C550.44 482.78 554.81 490.06 556.91 497.64C559.01 505.23 559.1 513.21 559.18 521.08C562.1 510.6 563.62 499.73 563.68 488.85C563.7 484.74 563.52 480.6 562.56 476.61C560.76 469.08 556.35 462.49 552.02 456.07C550.79 454.25 549.53 452.39 547.75 451.08C546.09 449.84 544.07 449.18 542.1 448.54C535.73 446.47 529.37 444.39 523 442.32M514.16 447.72C517.8 458.09 521.89 469.42 531.03 476.27C537.62 481.22 545.03 482.69 549.68 490.21C555.3 499.33 555.25 510.74 555.4 521.08C555.46 525.29 561.75 526.3 562.84 522.08C567.28 504.87 570.95 484.28 563.26 467.45C560.37 461.11 556.05 452.92 550.43 448.4C543.54 442.85 532.22 441.34 524.01 438.67C519.36 437.15 517.37 444.46 522 445.97C529.8 448.51 538.35 450.14 544.92 455.09C550.74 459.47 555.43 466.99 557.81 473.93C562.74 488.33 559.21 505.82 555.53 520.07C558.01 520.41 560.49 520.74 562.97 521.08C562.78 507.38 562.23 492.36 552.64 481.56C547.82 476.12 541.42 474.45 535.77 470.16C527.92 464.2 524.62 454.68 521.46 445.71C519.85 441.14 512.53 443.1 514.16 447.72ZM515.03 446.71C511.26 457.64 506.73 469.5 496.66 475.18C494.25 476.54 491.62 477.47 489.22 478.85C482.4 482.78 472.97 487.69 470.87 495.27C468.78 502.86 458.04 508.84 457.96 516.71C455.05 506.23 469.23 499.73 469.16 488.85C469.14 484.74 469.32 480.6 470.28 476.61C472.08 469.08 476.49 462.49 480.82 456.07C482.05 454.25 483.32 452.39 485.09 451.08C486.76 449.84 488.77 449.18 490.74 448.54C497.11 446.47 503.47 444.39 509.84 442.32M511.38 445.71C507.88 455.66 504.09 466.02 494.75 471.91C488.44 475.88 481.46 478.22 475.6 483.01C469.33 488.14 467.96 494.19 463.21 500.64C459.5 505.68 455.41 509.25 454.31 515.7L461.61 515.7C460.61 508.67 467.78 503.2 470.59 497.58C472.78 493.21 472.63 489.55 473.02 484.74C473.71 476.24 476.7 468.04 481.93 461.21C489.27 451.64 499.84 449.56 510.85 445.97C515.46 444.47 513.49 437.15 508.83 438.67C500.11 441.51 488.15 443.12 481.24 449.55C475.31 455.06 470.33 464.29 467.73 471.91C464.41 481.67 466.24 491 460.09 499.84C455.89 505.89 453.25 510.3 454.31 517.72C454.83 521.38 461 521.29 461.61 517.72C462.86 510.43 469.63 505.25 473.37 499.06C479.39 489.1 485.01 485.64 494.85 480.28C508.29 472.96 513.72 461.87 518.69 447.72C520.31 443.11 512.99 441.13 511.38 445.71Z" />
		<path id="Path 19" class="shp6" d="M545.19 495.27C545.19 495.27 551.57 477.29 557.79 484.47C564.01 491.66 558.16 507.95 548.94 507.97C539.73 508 545.19 495.27 545.19 495.27ZM478.95 495.27C478.95 495.27 472.57 477.29 466.35 484.47C460.13 491.66 465.99 507.95 475.2 507.97C484.41 508 478.95 495.27 478.95 495.27ZM502.78 677.02C502.78 677.02 517.59 655.23 520.15 657.21C522.71 659.19 518.02 669.45 518.02 669.45C518.02 669.45 537.59 644.16 541.53 647C545.46 649.84 553.44 672.31 541.66 684.84C529.88 697.37 516.2 701.64 516.2 701.64L502.78 677.02Z" />
		<path id="Path 20" class="shp4" d="M384.48 581.1C384.48 581.1 282.05 709.16 361.99 768.73C415.44 808.55 508.9 755.02 532.67 699.76L502.78 669.97C502.78 669.97 415.28 698.83 430.96 674.21" />
		<path id="Path 21" class="shp8" d="M403.53 634.44C403.53 634.44 377.33 704.18 482.36 704.18" />
		<path id="Path 22" class="shp9" d="M782.9 798.51C773.49 760.82 739.06 610.17 777.78 566.38C799.48 541.83 903.04 524.47 903.04 524.47L905.18 525.06C905.18 525.06 1018.21 541.83 1039.91 566.38C1078.63 610.17 1033.04 760.82 1020.79 798.51L782.9 798.51Z" />
		<path id="Path 23" class="shp6" d="M860.84 474.74C865.77 503.13 873.84 528.99 899.35 528.99C924.86 528.99 945.53 500.42 945.53 474.91C945.53 449.4 924.86 428.73 899.35 428.73C873.84 428.73 854.05 435.67 860.84 474.74ZM894.84 551.11L903.86 551.11C911.77 551.11 918.19 544.7 918.19 536.79L918.19 506.24C918.19 498.33 911.77 491.92 903.86 491.92L894.84 491.92C886.93 491.92 880.51 498.33 880.51 506.24L880.51 536.79C880.51 544.7 886.93 551.11 894.84 551.11ZM734.64 663.95C734.64 663.95 726.66 725.16 737.34 747.46C766.62 808.55 885.04 775.62 885.04 775.62L882.85 749.99C882.85 749.99 822.21 740.35 812.45 726.54C803.1 713.31 813.7 700.63 816.91 671.29L734.64 663.95ZM1068.75 673.41L1009.81 639.44C996.93 665.63 998.62 682.07 984.32 687.89C969.38 693.96 928.38 670.64 928.38 670.64L920.12 691.14C920.12 691.14 992.08 773.82 1032.45 746.97C1045.78 738.1 1062.17 710.55 1071.26 693.25C1066.74 688.07 1065.9 679.76 1068.75 673.41Z" />
		<path id="Path 24" class="shp9" d="M777.78 566.38C777.78 566.38 731.77 586.79 726.75 683.58C726.75 683.58 769.19 710.69 826.71 700.54C881.69 690.84 777.78 566.38 777.78 566.38Z" />
		<path id="Path 25" class="shp6" d="M882.85 749.99C882.85 749.99 893.9 738.26 895.99 741.6C898.08 744.95 894.87 749.14 894.87 749.14C894.87 749.14 914.68 742.11 916.91 743.95C919.14 745.79 919 759.74 911.89 765.59C904.78 771.45 885.04 775.62 885.04 775.62L882.85 749.99Z" />
		<path id="Path 26" class="shp9" d="M1042.8 573.11C1042.8 573.11 1078.22 616.32 1071.53 701.28C1071.53 701.28 1027.79 697.05 969.77 644.57C928.36 607.11 1042.8 573.11 1042.8 573.11Z" />
		<path id="Path 27" class="shp4" d="M901.14 682.61L888.64 682.61C877.68 682.61 868.79 673.72 868.79 662.76L868.79 637.02C868.79 635.17 870.29 633.67 872.14 633.67L917.64 633.67C919.49 633.67 920.98 635.17 920.98 637.02L920.98 662.76C920.98 673.72 912.1 682.61 901.14 682.61Z" />
		<path id="Path 28" fill-rule="evenodd" class="shp4" d="M914.02 666.28L914.02 649.16L915.27 648.44C916.75 647.58 924.41 643.43 929.15 646.22C930.67 647.11 932.45 649.03 932.39 653.16C932.24 663.24 921.98 666.11 916.58 666.23L914.02 666.28ZM919.04 652.12L919.04 660.91C922.24 660.3 927.29 658.49 927.37 653.08C927.38 652.14 927.27 650.93 926.61 650.55C925.23 649.74 921.7 650.82 919.04 652.12Z" />
		<path id="Path 29" class="shp6" d="M929.35 671.69C929.35 671.69 928.3 656.52 926.25 658.37C924.19 660.22 923.01 664.83 923.01 664.83L905.59 649.35C905.59 649.35 893.19 667.27 898.63 676.89C904.07 686.51 922.26 693.51 922.26 693.51L930.92 677.38L929.35 671.69Z" />
		<path id="Path 30" class="shp10" d="M991.09 784.48L867.75 784.48C865.79 784.48 864.19 782.89 864.19 780.92L864.19 761.87C864.19 759.91 865.79 758.31 867.75 758.31L991.09 758.31L991.09 784.48Z" />
		<path id="Path 31" class="shp0" d="M991.67 780.34L871.72 780.34L871.72 762.46L991.67 762.46L991.67 780.34Z" />
		<path id="Path 32" class="shp11" d="M991.67 766.87L875.35 766.87L875.35 764.51L991.67 764.51L991.67 766.87ZM991.67 770.34L875.35 770.34L875.35 767.98L991.67 767.98L991.67 770.34ZM991.67 773.8L875.35 773.8L875.35 771.44L991.67 771.44L991.67 773.8ZM991.67 777.33L875.35 777.33L875.35 774.96L991.67 774.96L991.67 777.33Z" />
		<path id="Path 33" class="shp12" d="M955.94 758.31L832.61 758.31C830.64 758.31 829.04 756.72 829.04 754.75L829.04 735.7C829.04 733.74 830.64 732.14 832.61 732.14L955.94 732.14L955.94 758.31Z" />
		<path id="Path 34" fill-rule="evenodd" class="shp13" d="M956.36 758.73L833.73 758.73C830.91 758.73 828.63 756.44 828.63 753.62L828.63 736.83C828.63 734.01 830.91 731.72 833.73 731.72L956.36 731.72L956.36 758.73ZM833.73 732.56C831.37 732.56 829.46 734.48 829.46 736.83L829.46 753.62C829.46 755.98 831.37 757.89 833.73 757.89L955.53 757.89L955.53 732.56L833.73 732.56Z" />
		<path id="Path 35" class="shp0" d="M956.52 754.17L836.57 754.17L836.57 736.28L956.52 736.28L956.52 754.17Z" />
		<path id="Path 36" class="shp11" d="M956.52 740.7L840.2 740.7L840.2 738.34L956.52 738.34L956.52 740.7ZM956.52 744.17L840.2 744.17L840.2 741.81L956.52 741.81L956.52 744.17ZM956.52 747.63L840.2 747.63L840.2 745.27L956.52 745.27L956.52 747.63ZM956.52 751.15L840.2 751.15L840.2 748.79L956.52 748.79L956.52 751.15Z" />
		<path id="Path 37" class="shp6" d="M870.5 474.74C870.5 474.74 863.69 455.54 857.04 463.21C850.4 470.88 856.66 488.27 866.49 488.3C876.33 488.33 870.5 474.74 870.5 474.74ZM937.87 474.74C937.87 474.74 944.68 455.54 951.33 463.21C957.97 470.88 951.72 488.27 941.88 488.3C932.04 488.33 937.87 474.74 937.87 474.74Z" />
		<path id="Path 38" class="shp9" d="M947.12 466.71C947.12 466.71 941.63 466.33 941.39 466.71C941.15 467.09 931.22 443.5 920.9 444.79C910.58 446.07 911.87 458.11 893.39 452.95C874.9 447.79 866.6 464.7 858.77 463.91C850.94 463.12 830.62 437.67 845.24 427.68C859.86 417.7 857.86 414.81 870.17 406.64C882.49 398.47 908.6 390.89 914.88 401.63C921.16 412.38 926.2 408.68 935.66 407.38C945.12 406.09 952.43 424.15 954.07 432.75C955.72 441.34 947.12 466.71 947.12 466.71Z" />
		<path id="Path 39" class="shp5" d="M1067.04 311.14C1071.91 311.14 1071.92 303.56 1067.04 303.56C1062.16 303.56 1062.16 311.14 1067.04 311.14ZM235.21 722.88C240.09 722.88 240.1 715.3 235.21 715.3C230.34 715.3 230.33 722.88 235.21 722.88Z" />
		<path id="Path 40" class="shp2" d="M183.04 271.69C195.05 271.69 195.07 253.03 183.04 253.03C171.03 253.03 171.01 271.69 183.04 271.69Z" />
		<path id="Path 41" class="shp5" d="M1127.65 653.51C1137.4 653.51 1137.42 638.36 1127.65 638.36C1117.9 638.36 1117.88 653.51 1127.65 653.51Z" />
		<path id="Path 42" class="shp14" d="M406.27 771.4L464.67 771.4L464.67 785.67L392 785.67C392 777.79 398.39 771.4 406.27 771.4Z" />
		<path id="Path 43" class="shp15" d="M684.82 629.22L499.56 629.22C492.09 629.22 485.02 635.28 483.77 642.75L459.97 785.67L672.3 785.67L696.1 642.75C697.35 635.28 692.3 629.22 684.82 629.22Z" />
		<path id="Path 44" class="shp16" d="M599.17 707.44C599.17 718.49 590.21 727.45 579.16 727.45C568.11 727.45 559.16 718.49 559.16 707.44C559.16 696.39 568.11 687.44 579.16 687.44C590.21 687.44 599.17 696.39 599.17 707.44Z" />
		<path id="Path 45" class="shp17" d="M243.64 794.04L1181.01 794.04" />
		<path id="Path 48" class="shp4" d="M749 212.84C749 227.31 737.27 239.04 722.8 239.04C708.33 239.04 696.6 227.31 696.6 212.84C696.6 198.37 708.33 186.63 722.8 186.63C737.27 186.63 749 198.37 749 212.84Z" />
		<path id="Path 49" class="shp18" d="M824.94 217.39L620.66 217.39L620.66 193.53C620.66 150.22 655.77 115.1 699.09 115.1L746.51 115.1C789.83 115.1 824.94 150.22 824.94 193.53L824.94 217.39ZM720.16 79.02C730.55 79.02 738.97 87.44 738.97 97.83L738.97 119.78C738.97 130.16 730.55 138.59 720.16 138.59C709.78 138.59 701.35 130.16 701.35 119.78L701.35 97.83C701.35 87.44 709.78 79.02 720.16 79.02Z" />
		<path id="Path 50" class="shp19" d="M719.66 100.69L719.66 -172" />
		<path id="Path 51" class="shp4" d="M547.91 93.85C547.91 144.59 506.77 185.72 456.03 185.72C405.29 185.72 364.15 144.59 364.15 93.85C364.15 43.1 405.29 1.97 456.03 1.97C506.77 1.97 547.91 43.1 547.91 93.85ZM183.04 692.45C183.04 713.12 166.28 729.88 145.61 729.88C124.94 729.88 108.19 713.12 108.19 692.45C108.19 671.78 124.94 655.03 145.61 655.03C166.28 655.03 183.04 671.78 183.04 692.45Z" />
		<path id="Path 52" class="shp18" d="M1303.58 373.75C1303.58 414 1270.94 446.63 1230.69 446.63C1190.44 446.63 1157.81 414 1157.81 373.75C1157.81 333.5 1190.44 300.86 1230.69 300.86C1270.94 300.86 1303.58 333.5 1303.58 373.75Z" />
		<path id="Path 53" class="shp2" d="M1235.69 196.04L1119.71 196.04C1116.91 196.04 1114.64 198.31 1114.64 201.11C1114.64 203.92 1116.91 206.19 1119.71 206.19L1235.69 206.19C1238.5 206.19 1240.77 203.92 1240.77 201.11C1240.77 198.31 1238.5 196.04 1235.69 196.04ZM1082.8 196.02L1060.13 196.02C1057.33 196.02 1055.06 198.29 1055.06 201.1C1055.06 203.9 1057.33 206.17 1060.13 206.17L1082.8 206.17C1085.6 206.17 1087.87 203.9 1087.87 201.1C1087.87 198.29 1085.6 196.02 1082.8 196.02ZM1090.59 236.45C1090.59 239.26 1088.32 241.53 1085.51 241.53L1060.14 241.53C1057.34 241.53 1055.07 239.26 1055.07 236.45C1055.07 233.65 1057.34 231.38 1060.14 231.38L1085.51 231.38C1088.32 231.38 1090.59 233.65 1090.59 236.45ZM1141.32 236.45C1141.32 239.26 1139.05 241.53 1136.25 241.53L1110.88 241.53C1108.08 241.53 1105.81 239.26 1105.81 236.45C1105.81 233.65 1108.08 231.38 1110.88 231.38L1136.25 231.38C1139.05 231.38 1141.32 233.65 1141.32 236.45ZM1181.2 236.45C1181.2 239.26 1178.93 241.53 1176.13 241.53L1161.62 241.53C1158.82 241.53 1156.55 239.26 1156.55 236.45C1156.55 233.65 1158.82 231.38 1161.62 231.38L1176.13 231.38C1178.93 231.38 1181.2 233.65 1181.2 236.45ZM471.25 143.53L388.36 143.53C385.56 143.53 383.28 145.8 383.28 148.6C383.28 151.41 385.56 153.68 388.36 153.68L471.25 153.68C474.05 153.68 476.32 151.41 476.32 148.6C476.32 145.8 474.05 143.53 471.25 143.53ZM351.45 143.51L328.78 143.51C325.98 143.51 323.71 145.78 323.71 148.58C323.71 151.39 325.98 153.66 328.78 153.66L351.45 153.66C354.25 153.66 356.52 151.39 356.52 148.58C356.52 145.78 354.25 143.51 351.45 143.51ZM359.23 183.94C359.23 186.74 356.96 189.02 354.16 189.02L328.79 189.02C325.99 189.02 323.72 186.74 323.72 183.94C323.72 181.14 325.99 178.87 328.79 178.87L354.16 178.87C356.96 178.87 359.23 181.14 359.23 183.94ZM409.97 183.94C409.97 186.74 407.7 189.02 404.9 189.02L379.53 189.02C376.73 189.02 374.45 186.74 374.45 183.94C374.45 181.14 376.73 178.87 379.53 178.87L404.9 178.87C407.7 178.87 409.97 181.14 409.97 183.94Z" />
		<path id="Path 54" class="shp20" d="M303.91 416.3C302.56 416.3 301.47 417.39 301.47 418.73L301.47 424.37C301.47 425.72 302.56 426.81 303.91 426.81C305.25 426.81 306.34 425.72 306.34 424.37L306.34 418.73C306.34 417.39 305.25 416.3 303.91 416.3ZM297.54 410.64L291.9 410.64C290.56 410.64 289.47 411.73 289.47 413.07C289.47 414.41 290.56 415.5 291.9 415.5L297.54 415.5C298.89 415.5 299.98 414.41 299.98 413.07C299.98 411.73 298.89 410.64 297.54 410.64ZM303.91 398.95C302.56 398.95 301.47 400.04 301.47 401.38L301.47 407.02C301.47 408.36 302.56 409.45 303.91 409.45C305.25 409.45 306.34 408.36 306.34 407.02L306.34 401.38C306.34 400.04 305.25 398.95 303.91 398.95ZM315.92 410.25L310.27 410.25C308.93 410.25 307.84 411.34 307.84 412.68C307.84 414.03 308.93 415.11 310.27 415.11L315.92 415.11C317.26 415.11 318.35 414.03 318.35 412.68C318.35 411.34 317.26 410.25 315.92 410.25Z" />
		<path id="Path 55" class="shp4" d="M607.91 103.49C607.91 103.49 611.91 132.05 578.55 131.4C578.55 131.4 607.22 131.69 606.45 158.49C606.45 158.49 609.03 137.41 635.32 132.69C635.32 132.69 613.1 137.79 607.91 103.49ZM635.64 97.19C635.64 97.19 637.57 110.99 621.45 110.68C621.45 110.68 635.31 110.82 634.93 123.77C634.93 123.77 636.18 113.58 648.89 111.31C648.89 111.31 638.15 113.77 635.64 97.19Z" />
		<path id="Path 56" class="shp18" d="M1201.44 484.65C1200.1 484.65 1199.01 485.73 1199.01 487.08L1199.01 492.72C1199.01 494.06 1200.1 495.15 1201.44 495.15C1202.78 495.15 1203.87 494.06 1203.87 492.72L1203.87 487.08C1203.87 485.73 1202.78 484.65 1201.44 484.65ZM1195.07 478.98L1189.43 478.98C1188.09 478.98 1187 480.07 1187 481.42C1187 482.76 1188.09 483.85 1189.43 483.85L1195.07 483.85C1196.42 483.85 1197.5 482.76 1197.5 481.42C1197.5 480.07 1196.42 478.98 1195.07 478.98ZM1201.44 467.29C1200.1 467.29 1199.01 468.38 1199.01 469.73L1199.01 475.37C1199.01 476.71 1200.1 477.8 1201.44 477.8C1202.78 477.8 1203.87 476.71 1203.87 475.37L1203.87 469.73C1203.87 468.38 1202.78 467.29 1201.44 467.29ZM1213.45 478.6L1207.8 478.6C1206.46 478.6 1205.37 479.69 1205.37 481.03C1205.37 482.37 1206.46 483.46 1207.8 483.46L1213.45 483.46C1214.79 483.46 1215.88 482.37 1215.88 481.03C1215.88 479.69 1214.79 478.6 1213.45 478.6ZM486.3 347.54C484.96 347.54 483.87 348.63 483.87 349.97L483.87 355.62C483.87 356.96 484.96 358.05 486.3 358.05C487.64 358.05 488.73 356.96 488.73 355.62L488.73 349.97C488.73 348.63 487.64 347.54 486.3 347.54ZM479.93 341.88L474.29 341.88C472.95 341.88 471.86 342.97 471.86 344.31C471.86 345.66 472.95 346.74 474.29 346.74L479.93 346.74C481.28 346.74 482.37 345.66 482.37 344.31C482.37 342.97 481.28 341.88 479.93 341.88ZM486.3 330.19C484.96 330.19 483.87 331.28 483.87 332.62L483.87 338.26C483.87 339.61 484.96 340.69 486.3 340.69C487.64 340.69 488.73 339.61 488.73 338.26L488.73 332.62C488.73 331.28 487.64 330.19 486.3 330.19ZM498.31 341.49L492.66 341.49C491.32 341.49 490.23 342.58 490.23 343.93C490.23 345.27 491.32 346.36 492.66 346.36L498.31 346.36C499.65 346.36 500.74 345.27 500.74 343.93C500.74 342.58 499.65 341.49 498.31 341.49Z" />
	</g>
</svg>