<?xml version="1.0" encoding="iso-8859-1"?>
<!-- Generator: Adobe Illustrator 19.0.0, SVG Export Plug-In . SVG Version: 6.00 Build 0)  -->
<svg version="1.1" id="Layer_1" xmlns="http://www.w3.org/2000/svg" xmlns:xlink="http://www.w3.org/1999/xlink" x="0px" y="0px"
	 viewBox="0 0 512 512" style="enable-background:new 0 0 512 512;" xml:space="preserve">
<path style="fill:#FFCD9C;" d="M386.989,87.945H8.17v303.426h150.053L419.67,120.626L386.989,87.945z"/>
<polygon style="fill:#FF4719;" points="40.851,391.374 40.851,424.055 419.666,424.055 503.83,340.305 503.83,294.203 "/>
<path style="fill:#FF754F;" d="M419.666,120.624H40.851v270.75h365.328l97.65-97.171v-89.829L419.666,120.624z M443.915,288.68
	c-9.024,0-16.34-7.307-16.34-16.333c0-9.024,7.316-16.348,16.34-16.348s16.34,7.316,16.34,16.34S452.939,288.68,443.915,288.68z"/>
<path d="M509.592,198.58l-84.16-83.744c-1.531-1.523-3.603-2.379-5.763-2.379H40.851c-4.512,0-8.17,3.658-8.17,8.17v303.426
	c0,4.512,3.658,8.17,8.17,8.17H419.67c2.16,0,4.232-0.855,5.763-2.379l84.16-83.745c1.541-1.534,2.407-3.618,2.407-5.791V204.371
	C512,202.197,511.134,200.114,509.592,198.58z M495.66,336.913l-79.362,78.97H49.021V128.797h367.276l79.362,78.97V336.913z"/>
<path d="M395.159,87.946c0-4.512-3.658-8.17-8.17-8.17H8.17c-4.512,0-8.17,3.658-8.17,8.17v303.426c0,4.512,3.658,8.17,8.17,8.17
	s8.17-3.658,8.17-8.17V96.117h370.649C391.501,96.117,395.159,92.458,395.159,87.946z"/>
<path d="M277.685,190.77c4.513-0.001,8.169-3.659,8.168-8.171c-0.001-4.512-3.658-8.169-8.17-8.169c-0.001,0-0.001,0-0.001,0
	l-78.067,0.017c-4.512,0.001-8.169,3.658-8.169,8.17v179.464c0,4.512,3.658,8.17,8.17,8.17h78.067c4.512,0,8.17-3.658,8.17-8.17
	c0-4.512-3.658-8.17-8.17-8.17h-69.897v-73.392h46.48c4.512,0,8.17-3.658,8.17-8.17c0-4.512-3.658-8.17-8.17-8.17h-46.48v-73.392
	L277.685,190.77z"/>
<path d="M125.257,190.77c17.928,0,32.512,14.584,32.512,32.512c0,4.512,3.658,8.17,8.17,8.17s8.17-3.658,8.17-8.17
	c0-26.938-21.915-48.852-48.852-48.852s-48.852,21.915-48.852,48.852c0,35.198,28.362,48.504,45.307,56.454
	c19.646,9.218,35.908,18.715,35.908,41.663c0,17.928-14.584,32.512-32.512,32.512c-17.927-0.001-32.511-14.585-32.511-32.512
	c0-4.512-3.658-8.17-8.17-8.17s-8.17,3.658-8.17,8.17c0,26.938,21.915,48.852,48.852,48.852s48.852-21.915,48.852-48.852
	c0-35.197-28.362-48.504-45.307-56.455c-19.646-9.217-35.906-18.714-35.906-41.662C92.746,205.354,107.33,190.77,125.257,190.77z"/>
<path d="M339.845,174.43c-26.938,0-48.852,21.915-48.852,48.839l-0.15,98.13c0,26.938,21.915,48.852,48.852,48.852
	c26.938,0,48.852-21.915,48.852-48.852v-98.117C388.546,196.344,366.699,174.43,339.845,174.43z M372.205,321.399
	c0,17.928-14.584,32.512-32.512,32.512c-17.927,0-32.512-14.584-32.512-32.499l0.15-98.13c0-17.928,14.584-32.512,32.512-32.512
	c17.844,0,32.361,14.584,32.361,32.512v98.117H372.205z"/>
<path d="M443.915,296.851c13.516,0,24.511-10.995,24.511-24.511s-10.995-24.511-24.511-24.511s-24.511,10.999-24.511,24.518
	C419.404,285.859,430.399,296.851,443.915,296.851z M443.915,264.17c4.506,0,8.17,3.665,8.17,8.17c0,4.506-3.665,8.17-8.17,8.17
	s-8.17-3.661-8.17-8.163C435.745,267.839,439.409,264.17,443.915,264.17z"/>
<g>
</g>
<g>
</g>
<g>
</g>
<g>
</g>
<g>
</g>
<g>
</g>
<g>
</g>
<g>
</g>
<g>
</g>
<g>
</g>
<g>
</g>
<g>
</g>
<g>
</g>
<g>
</g>
<g>
</g>
</svg>
