<?xml version="1.0" encoding="iso-8859-1"?>
<!-- Generator: Adobe Illustrator 21.0.0, SVG Export Plug-In . SVG Version: 6.00 Build 0)  -->
<svg version="1.1" id="Capa_1" xmlns="http://www.w3.org/2000/svg" xmlns:xlink="http://www.w3.org/1999/xlink" x="0px" y="0px"
	 viewBox="0 0 512 512" style="enable-background:new 0 0 512 512;" xml:space="preserve">
<path style="fill:#E4EAF8;" d="M317.098,410.728c0-51.771,41.97-93.741,93.741-93.741c3.57,0,7.092,0.207,10.56,0.595
	c3.931-9.953,7.039-20.321,9.223-31.027c0.275-1.349,1.447-2.323,2.823-2.323h40.829c7.852,0,14.219-6.366,14.219-14.219v-41.789
	c0-7.852-6.365-14.218-14.218-14.218h-40.83c-1.377,0-2.549-0.974-2.824-2.323c-4.827-23.673-14.136-45.716-27.013-65.197
	c-0.759-1.149-0.617-2.664,0.356-3.638l28.876-28.876c5.552-5.553,5.552-14.556,0-20.108L403.29,64.316
	c-5.552-5.552-14.556-5.552-20.108,0l-28.875,28.875c-0.973,0.974-2.49,1.116-3.638,0.356
	c-19.481-12.877-41.523-22.185-65.196-27.013c-1.349-0.275-2.323-1.447-2.323-2.824V22.883c0-7.852-6.366-14.219-14.219-14.219
	h-41.789c-7.853,0-14.219,6.365-14.219,14.219v40.829c0,1.376-0.974,2.548-2.323,2.824c-23.673,4.828-45.716,14.136-65.196,27.013
	c-1.149,0.759-2.665,0.617-3.638-0.356l-28.876-28.875c-5.553-5.552-14.556-5.552-20.108,0L63.234,93.867
	c-5.552,5.553-5.552,14.555,0,20.108l28.876,28.876c0.974,0.974,1.115,2.489,0.356,3.638
	c-12.877,19.481-22.185,41.523-27.013,65.197c-0.275,1.349-1.447,2.323-2.823,2.323h-40.83c-7.853,0-14.219,6.366-14.219,14.219
	v41.788c0,7.853,6.365,14.219,14.219,14.219h40.83c1.376,0,2.548,0.974,2.823,2.323c4.828,23.673,14.136,45.716,27.013,65.196
	c0.759,1.149,0.617,2.664-0.356,3.638l-28.876,28.874c-5.552,5.553-5.552,14.556,0,20.108l29.549,29.549
	c5.552,5.553,14.555,5.553,20.108,0l28.876-28.876c0.974-0.973,2.489-1.115,3.638-0.356c19.48,12.877,41.523,22.184,65.196,27.013
	c1.349,0.275,2.323,1.447,2.323,2.823v40.83c0,7.852,6.366,14.219,14.219,14.219h41.789c7.852,0,14.219-6.366,14.219-14.219v-40.829
	c0-1.376,0.974-2.548,2.323-2.823c11.164-2.277,21.957-5.561,32.298-9.735C317.33,418.283,317.098,414.533,317.098,410.728z"/>
<g>
	<path style="fill:#D8DCE5;" d="M92.11,142.85c0.974,0.974,1.115,2.49,0.356,3.638c-12.877,19.481-22.184,41.523-27.013,65.197
		c-0.275,1.349-1.447,2.323-2.823,2.323h20.001c1.376,0,2.548-0.974,2.823-2.323c4.828-23.673,14.136-45.716,27.013-65.197
		c0.759-1.149,0.617-2.664-0.356-3.638l-28.876-28.876c-5.552-5.552-5.552-14.555,0-20.108l29.549-29.549
		c0.017-0.017,0.036-0.031,0.054-0.048c-5.557-5.501-14.52-5.487-20.055,0.048L63.234,93.866c-5.552,5.553-5.552,14.556,0,20.108
		L92.11,142.85z"/>
	<path style="fill:#D8DCE5;" d="M27.582,270.014v-41.788c0-7.852,6.365-14.219,14.219-14.219H21.799
		c-7.853,0-14.219,6.366-14.219,14.219v41.788c0,7.853,6.365,14.219,14.219,14.219h20.001
		C33.947,284.233,27.582,277.867,27.582,270.014z"/>
	<path style="fill:#D8DCE5;" d="M112.784,433.923l-29.549-29.549c-5.552-5.552-5.552-14.555,0-20.108l28.876-28.876
		c0.974-0.974,1.115-2.489,0.356-3.638c-12.877-19.48-22.184-41.522-27.013-65.196c-0.275-1.349-1.447-2.323-2.823-2.323H62.63
		c1.376,0,2.548,0.974,2.823,2.323c4.828,23.673,14.136,45.716,27.013,65.196c0.759,1.149,0.617,2.664-0.356,3.638l-28.876,28.875
		c-5.552,5.553-5.552,14.556,0,20.108l29.549,29.549c5.535,5.535,14.498,5.549,20.055,0.048
		C112.821,433.954,112.802,433.94,112.784,433.923z"/>
</g>
<path style="fill:#576574;" d="M346.276,304.897c-2.554-1.474-3.451-4.691-2.096-7.309c7.647-14.774,11.981-31.528,12.002-49.275
	c-0.019-19.637-5.319-38.058-14.545-53.927c-7.018-14.037-27.184-33.255-39.612-39.47l0,0l-0.001-0.001l0,0
	c-15.823-9.122-34.162-14.348-53.7-14.348c-0.097,0-0.192,0.003-0.289,0.003c-19.608,0.052-38.002,5.362-53.846,14.594
	c-15.992,9.318-29.711,22.84-39.324,39.471c-9.68,16.743-14.357,35.137-14.403,53.673c0.044,16.904,3.938,33.69,11.968,49.213
	c1.302,2.517,0.429,5.608-2.025,7.024l-22.189,13.511c23.884,41.876,68.549,69.706,120.109,69.706
	c31.657,0,60.865-10.674,84.228-28.6c6.91-10.47,15.862-19.472,26.293-26.439c3.589-4.733,6.876-9.708,9.846-14.886L346.276,304.897
	z"/>
<path style="fill:#3E4B5A;" d="M143.336,308.847l-15.123,9.208c23.884,41.876,68.549,69.706,120.11,69.706
	c3.37,0,6.71-0.128,10.022-0.366C207.497,383.744,164.25,352.652,143.336,308.847z"/>
<path style="fill:#ACD6FC;" d="M317.414,128.956c-20.352-11.748-43.951-18.475-69.091-18.475c-0.096,0-0.191,0.003-0.286,0.004
	v31.852c0.096,0,0.191-0.003,0.286-0.003c19.345,0,37.502,5.175,53.167,14.206c0,0-0.001,0-0.001-0.001L317.414,128.956z"/>
<path style="fill:#54A0FF;" d="M128.214,179.94l27.581,15.923c9.518-16.466,23.1-29.855,38.933-39.078l-15.921-27.576
	C157.877,141.391,140.341,158.966,128.214,179.94z"/>
<path style="fill:#8AC2FF;" d="M368.288,179.694c-12.219-21.03-29.313-38.116-50.874-50.737l-15.925,27.583
	c12.305,6.152,32.271,25.181,39.219,39.078L368.288,179.694z"/>
<g>
	<path style="fill:#54A0FF;" d="M340.709,195.617c9.152,15.742,14.403,34.019,14.402,53.504h31.852
		c0-25.281-6.813-48.993-18.683-69.422L340.709,195.617z"/>
	<polygon style="fill:#54A0FF;" points="340.709,195.617 340.709,195.617 340.708,195.614 	"/>
	<polygon style="fill:#54A0FF;" points="368.288,179.694 368.278,179.699 368.279,179.699 	"/>
</g>
<path style="fill:#338DEF;" d="M248.035,110.485c-25.21,0.052-48.852,6.878-69.223,18.735l11.551,20.006l0,0l4.364,7.558
	c15.685-9.14,33.897-14.397,53.31-14.449v-31.852C248.037,110.485,248.036,110.485,248.035,110.485z"/>
<path id="SVGCleanerId_0" style="fill:#8AC2FF;" d="M128.214,179.94c-12.064,20.774-18.53,44.832-18.53,69.18h31.848
	c0.027-18.391,4.657-36.645,14.262-53.257L128.214,179.94L128.214,179.94z"/>
<g>
	<path id="SVGCleanerId_0_1_" style="fill:#8AC2FF;" d="M128.214,179.94c-12.064,20.774-18.53,44.832-18.53,69.18h31.848
		c0.027-18.391,4.657-36.645,14.262-53.257L128.214,179.94L128.214,179.94z"/>
</g>
<g>
	<path style="fill:#338DEF;" d="M355.111,248.874c0.001,17.621-4.293,34.255-11.885,48.919c-1.342,2.593-0.453,5.777,2.075,7.236
		l22.977,13.266c11.87-20.428,18.683-44.142,18.683-69.422h-31.851V248.874z"/>
	<polygon style="fill:#338DEF;" points="368.288,318.301 368.278,318.295 368.279,318.295 	"/>
</g>
<path id="SVGCleanerId_1" style="fill:#ACD6FC;" d="M153.382,297.726c-7.969-15.408-11.827-32.073-11.851-48.852h-31.848
	c0,24.348,6.466,48.406,18.53,69.18l23.164-13.374C153.807,303.277,154.671,300.217,153.382,297.726z"/>
<g>
	<path id="SVGCleanerId_1_1_" style="fill:#ACD6FC;" d="M153.382,297.726c-7.969-15.408-11.827-32.073-11.851-48.852h-31.848
		c0,24.348,6.466,48.406,18.53,69.18l23.164-13.374C153.807,303.277,154.671,300.217,153.382,297.726z"/>
</g>
<path style="fill:#8AC2FF;" d="M129.689,249.12h-0.004c0-0.041,0.002-0.082,0.002-0.123s-0.002-0.082-0.002-0.124h-20.001
	c0,24.348,6.466,48.406,18.53,69.18l15.314-8.842C134.528,290.661,129.727,270.004,129.689,249.12z"/>
<path style="fill:#54A0FF;" d="M129.685,248.874h0.004c0.038-20.884,4.839-41.541,13.839-60.092l-15.314-8.842
	c-12.064,20.774-18.53,44.832-18.53,69.18h20.001c0-0.041,0.002-0.082,0.002-0.123C129.687,248.956,129.685,248.915,129.685,248.874
	z"/>
<path style="fill:#338DEF;" d="M148.215,179.94c9.223-15.95,21.579-29.927,36.17-41.068l-5.579-9.663
	c-20.93,12.181-38.464,29.757-50.593,50.731l15.314,8.842C144.984,185.778,146.54,182.825,148.215,179.94z"/>
<path style="fill:#1F82DB;" d="M198.807,129.21l0.006,0.01c14.882-8.662,31.515-14.623,49.224-17.236v-1.499c0,0-0.001,0-0.002,0
	c-25.21,0.052-48.852,6.878-69.223,18.735l5.573,9.653C188.981,135.362,193.794,132.127,198.807,129.21z"/>
<circle style="fill:#1DD1A1;" cx="409.835" cy="409.726" r="94.736"/>
<path style="fill:#E4EAF8;" d="M392.027,438.434l-20.335-19.93c-4.451-4.362-4.523-11.507-0.16-15.958
	c4.362-4.451,11.507-4.523,15.958-0.16l12.459,12.211l32.264-31.447c4.462-4.348,11.607-4.258,15.958,0.204
	c4.35,4.463,4.258,11.608-0.205,15.958l-40.162,39.145C403.411,442.734,396.406,442.727,392.027,438.434z"/>
<path style="fill:#15BA8B;" d="M335.099,409.729c0-48.946,37.117-89.219,84.74-94.216c-3.286-0.345-6.622-0.525-10.001-0.525
	c-52.324,0-94.741,42.417-94.741,94.741s42.417,94.741,94.741,94.741c3.378,0,6.714-0.18,10.001-0.525
	C372.218,498.947,335.099,458.674,335.099,409.729z"/>
<g>
	<path style="fill:#D8DCE5;" d="M406.278,431.933l-20.335-19.93c-3.336-3.27-4.212-8.102-2.604-12.193
		c-4.006-1.409-8.639-0.498-11.807,2.735c-4.363,4.451-4.29,11.596,0.16,15.958l20.335,19.93c4.376,4.29,11.381,4.304,15.775,0.022
		l3.719-3.625C409.606,434.368,407.785,433.41,406.278,431.933z"/>
	<path style="fill:#D8DCE5;" d="M229.448,63.778c1.935-0.073,3.476-1.641,3.476-3.578V22.883c0-7.852,6.366-14.219,14.22-14.219
		h-20.001c-7.853,0-14.22,6.366-14.22,14.22v40.829c0,1.332-0.915,2.465-2.197,2.786C211.738,66.204,219.042,64.172,229.448,63.778z
		"/>
	<path style="fill:#D8DCE5;" d="M232.925,475.358v-36.141c0-2.558-2.016-4.676-4.573-4.772c-9.794-0.368-15.164-1.853-17.008-2.469
		c0.946,0.483,1.579,1.447,1.579,2.553v40.83c0,7.853,6.366,14.219,14.219,14.219h20.001
		C239.291,489.577,232.925,483.211,232.925,475.358z"/>
</g>
<path d="M454.053,379.527c-7.181-7.367-19.022-7.52-26.396-0.338l-26.673,25.999l-7.091-6.948
	c-7.36-7.216-19.174-7.104-26.398,0.264c-7.22,7.368-7.103,19.173,0.266,26.398l20.12,19.72c7.245,7.102,18.825,7.121,26.094,0.036
	l39.739-38.732C461.106,398.722,461.257,386.916,454.053,379.527z M443.247,395.181l-39.739,38.731
	c-1.38,1.346-3.745,1.343-5.122-0.007l-20.12-19.72c-1.445-1.415-1.472-3.735-0.053-5.183c1.416-1.446,3.736-1.471,5.183-0.052
	l12.327,12.081c2.91,2.852,7.565,2.856,10.486,0.015l31.922-31.115c1.448-1.41,3.772-1.38,5.184,0.066
	C444.725,391.446,444.696,393.768,443.247,395.181z"/>
<path d="M314.882,281.752l-44.152-27.254c0.425-1.762,0.656-3.599,0.656-5.489c0-6.6-2.813-12.927-7.716-17.357
	c-4.921-4.447-11.503-6.62-18.055-5.953c-12.875,1.336-22.28,12.837-20.969,25.633c1.226,12.032,11.248,21.105,23.314,21.105
	c5.591,0,10.73-1.972,14.761-5.253l44.282,27.334c1.228,0.758,2.588,1.119,3.933,1.119c2.515,0,4.971-1.265,6.389-3.562
	C319.5,288.55,318.407,283.927,314.882,281.752z M239.571,249.804c-0.41-3.996,2.376-8.646,7.575-9.185
	c0.271-0.027,0.544-0.041,0.815-0.041c2.057,0,4.079,0.779,5.651,2.201c1.788,1.615,2.772,3.827,2.772,6.228
	c0,1.663-0.49,3.21-1.325,4.517c-0.017,0.027-0.038,0.052-0.055,0.08c-0.022,0.036-0.039,0.074-0.061,0.111
	c-1.515,2.242-4.081,3.719-6.984,3.719C243.62,257.435,240.014,254.158,239.571,249.804z"/>
<path d="M21.719,291.867h37.092c4.861,21.699,13.35,42.186,25.273,60.995l-26.233,26.233c-8.488,8.49-8.489,22.226,0,30.717
	L87.4,439.36c8.49,8.488,22.226,8.489,30.717,0l26.232-26.233c18.81,11.922,39.295,20.409,60.996,25.273v37.092
	c0,11.977,9.743,21.719,21.719,21.719h41.789c11.977,0,21.719-9.743,21.719-21.719v-37.094c7.162-1.609,14.265-3.65,21.234-6.081
	c8.515,39.622,40.163,71.081,81.469,78.276c4.062,0.71,7.964-2.007,8.677-6.102c0.711-4.081-2.021-7.965-6.102-8.677
	c-41.624-7.25-71.33-43.269-71.33-84.953c0-47.554,38.687-86.24,86.24-86.24c47.453,0,86.24,38.608,86.24,86.24
	c0,40.83-28.99,76.37-68.933,84.503c-4.059,0.827-6.679,4.787-5.853,8.848c0.827,4.059,4.8,6.679,8.847,5.853
	c46.9-9.552,80.941-51.272,80.941-99.203c0-48.722-34.597-89.513-80.514-99.105c2.224-6.533,4.108-13.185,5.615-19.89h37.092
	c11.977,0,21.72-9.743,21.72-21.719v-3.641c0-4.143-3.357-7.5-7.5-7.5s-7.5,3.357-7.5,7.5v3.641c0,3.704-3.014,6.718-6.719,6.718
	h-40.829c-4.91,0-9.189,3.501-10.173,8.324c-1.694,8.309-4.008,16.554-6.894,24.582c0,0-2.572-0.153-5.539-0.153
	c-11.132,0-21.846,1.811-31.873,5.145c48-95.056-21.009-211.652-130.642-211.652c-80.018,0-145.949,64.837-146.137,145.811
	c0,0.028-0.004,0.055-0.004,0.083c0,0.036,0.002,0.072,0.002,0.108c0,0.047-0.002,0.093-0.002,0.139
	c0,109.102,115.928,179.682,212.385,130.269c-3.221,9.873-4.971,20.404-4.971,31.339c0,2.246,0.133,5.259,0.196,6.279
	c-8.428,3.101-17.089,5.566-25.82,7.347c-4.822,0.984-8.323,5.262-8.323,10.173v40.83c0,3.704-3.014,6.718-6.718,6.718h-41.789
	c-3.704,0-6.718-3.014-6.718-6.718v-40.83c0-4.91-3.501-9.189-8.325-10.173c-22.404-4.569-43.453-13.291-62.563-25.923
	c-4.102-2.709-9.602-2.158-13.074,1.311l-28.876,28.876c-2.623,2.625-6.875,2.627-9.501,0l-29.549-29.549
	c-2.624-2.622-2.627-6.874,0-9.502l28.875-28.875c3.471-3.472,4.022-8.972,1.31-13.078c-12.632-19.108-21.352-40.155-25.921-62.56
	c-0.984-4.822-5.262-8.323-10.173-8.323H21.719c-3.704,0-6.718-3.014-6.718-6.718V228.36c0-3.705,3.014-6.719,6.718-6.719h40.83
	c4.909,0,9.188-3.5,10.173-8.325c4.567-22.4,13.289-43.449,25.922-62.561c2.712-4.105,2.16-9.605-1.311-13.076l-28.876-28.877
	c-2.624-2.624-2.626-6.874,0.001-9.5l29.549-29.549c2.619-2.621,6.881-2.621,9.501,0l28.876,28.875
	c3.472,3.472,8.973,4.021,13.078,1.31c19.107-12.632,40.155-21.352,62.559-25.921c4.823-0.984,8.325-5.263,8.325-10.174V23.016
	c0-3.704,3.014-6.718,6.718-6.718h41.789c3.704,0,6.718,3.014,6.718,6.718v40.829c0,4.91,3.501,9.189,8.326,10.174
	c22.4,4.567,43.448,13.289,62.556,25.919c4.107,2.717,9.609,2.165,13.08-1.308l28.876-28.875c2.623-2.625,6.875-2.627,9.501,0
	l29.55,29.549c2.624,2.624,2.626,6.874-0.001,9.5l-28.876,28.876c-3.473,3.474-4.022,8.976-1.309,13.078
	c12.632,19.109,21.352,40.157,25.921,62.563c0.985,4.821,5.263,8.322,10.174,8.322h40.829c3.704,0,6.718,3.014,6.718,6.718v3.146
	c0,4.143,3.357,7.5,7.5,7.5s7.5-3.357,7.5-7.5v-3.146c0-11.977-9.743-21.719-21.719-21.719h-37.092
	c-4.861-21.697-13.349-42.184-25.273-60.996l26.233-26.233c8.487-8.489,8.49-22.226,0-30.716l-29.548-29.549
	c-8.489-8.487-22.226-8.49-30.716,0l-26.234,26.233c-18.813-11.924-39.297-20.411-60.995-25.273V23.015
	c0-11.977-9.743-21.719-21.719-21.719h-41.789c-11.977,0-21.719,9.743-21.719,21.719v37.092
	c-21.697,4.861-42.186,13.35-60.995,25.273l-26.233-26.233c-8.47-8.468-22.247-8.468-30.717,0L57.851,88.696
	c-8.487,8.489-8.49,22.227,0,30.715l26.233,26.234c-11.925,18.814-20.411,39.298-25.273,60.996H21.718
	C9.743,206.64,0,216.383,0,228.36v41.788C0,282.124,9.743,291.867,21.719,291.867z M255.457,135.194v-16.879
	c0.147,0.008,0.293,0.02,0.44,0.028c17.267,1.012,34.752,5.475,51.079,13.683l-8.441,14.619
	C285.096,140.042,270.433,136.144,255.457,135.194z M240.457,135.234c-14.95,1.022-29.567,4.979-42.954,11.63l-7.79-13.494
	l-0.639-1.107c15.893-8.063,33.322-12.797,51.135-13.895c0.083-0.005,0.166-0.011,0.249-0.016L240.457,135.234L240.457,135.234z
	 M184.537,154.41c-12.38,8.342-23.048,19.048-31.354,31.466c-7.161-4.134-3.603-2.08-14.613-8.437
	c10.123-15.298,22.724-27.848,37.53-37.64l3.928,6.804L184.537,154.41z M117.335,256.755h16.882
	c0.999,14.942,4.838,29.245,11.46,42.645l-14.624,8.442C123.06,292.015,118.387,274.602,117.335,256.755z M145.681,198.865
	c-6.537,13.279-10.432,27.785-11.455,42.642h-16.887c1.024-17.317,5.438-34.649,13.724-51.081l14.4,8.314L145.681,198.865z
	 M319.957,139.547c14.813,9.758,27.607,22.202,37.799,37.653c-5.322,3.072-9.37,5.409-14.474,8.357
	c-7.919-11.701-20.995-24.213-31.697-31.509L319.957,139.547z M379.147,241.506h-16.882c-1.016-14.922-4.957-29.518-11.589-42.898
	l14.608-8.435C373.363,206.129,378.111,223.705,379.147,241.506z M362.263,256.755h16.884c-1.031,17.692-5.744,35.298-13.863,51.331
	l-14.606-8.434C357.295,286.314,361.242,271.65,362.263,256.755z M138.454,320.89l16.595-9.581
	c5.896-3.404,8.055-10.827,4.915-16.896c-7.261-14.041-10.965-29.274-11.01-45.277c0.096-36.266,19.626-68.348,49.463-85.734
	c0.002-0.001,0.004-0.002,0.005-0.003c14.997-8.74,32.133-13.383,49.554-13.43c0,0,0.003,0,0.005,0l0.262-0.003
	c24.394,0,39.38,8.181,49.811,13.413c10.378,5.189,29.315,22.793,35.895,35.777c0.021,0.04,0.195,0.363,0.195,0.363
	c8.74,15.033,13.366,32.189,13.384,49.619c-0.018,15.963-3.732,31.218-11.044,45.34c-3.194,6.174-1.005,13.721,4.986,17.18
	l16.386,9.461c-1.388,2.105-2.818,4.19-4.336,6.229c-10.501,7.204-19.435,16.189-26.586,26.732
	C266.48,399.609,180.12,384.53,138.454,320.89z"/>
<g>
</g>
<g>
</g>
<g>
</g>
<g>
</g>
<g>
</g>
<g>
</g>
<g>
</g>
<g>
</g>
<g>
</g>
<g>
</g>
<g>
</g>
<g>
</g>
<g>
</g>
<g>
</g>
<g>
</g>
</svg>
