<svg height="512pt" viewBox="0 -37 512 512" width="512pt" xmlns="http://www.w3.org/2000/svg"><path d="m504.5 203.398438c0 29.382812-23.820312 53.199218-53.199219 53.199218-29.382812 0-53.199219-23.816406-53.199219-53.199218 0-29.382813 23.816407-53.199219 53.199219-53.199219 29.378907 0 53.199219 23.816406 53.199219 53.199219zm0 0" fill="#daedff"/><path d="m504.496094 203.402344c0 29.375-23.816406 53.195312-53.199219 53.195312-15.269531 0-29.035156-6.433594-38.71875-16.742187 6.265625 2.605469 13.144531 4.042969 20.359375 4.042969 29.382812 0 53.203125-23.816407 53.203125-53.191407 0-14.105469-5.492187-26.949219-14.464844-36.464843 19.265625 8 32.820313 26.996093 32.820313 49.160156zm0 0" fill="#8ecbfd"/><path d="m177.582031 261.53125-22.816406 71.894531-21.46875 67.65625c-5.496094 17.3125-21.570313 29.078125-39.734375 29.078125h-42.933594c-12.082031 0-20.675781-11.746094-17.019531-23.261718l46.128906-145.367188zm0 0" fill="#9c9c9c"/><path d="m177.582031 261.53125-44.292969 139.554688c-5.488281 17.3125-21.5625 29.074218-39.726562 29.074218h-25.992188c18.164063 0 34.234376-11.761718 39.726563-29.074218l44.292969-139.554688zm0 0" fill="#838383"/><path d="m154.765625 333.425781-21.476563 67.660157c-5.488281 17.3125-21.5625 29.074218-39.726562 29.074218h-26.261719l30.699219-96.734375zm0 0" fill="#ff6672"/><path d="m154.765625 333.425781-21.476563 67.660157c-5.488281 17.3125-21.5625 29.074218-39.726562 29.074218h-25.992188c18.164063 0 34.234376-11.761718 39.726563-29.074218l21.476563-67.660157zm0 0" fill="#f92f41"/><path d="m196.304688 121.046875h-106.453126c-45.480468 0-82.351562 36.871094-82.351562 82.351563 0 45.480468 36.871094 82.351562 82.351562 82.351562h106.453126c42.578124 0 83.820312 15.445312 115.519531 43.867188 29.988281 26.886718 69.613281 43.238281 113.0625 43.238281v-338.914063c-43.449219 0-83.070313 16.355469-113.0625 43.242188-31.699219 28.421875-72.941407 43.863281-115.519531 43.863281zm0 0" fill="#e7e7e7"/><path d="m424.886719 33.945312v338.90625c-15.628907 0-30.773438-2.117187-45.152344-6.074218v-326.757813c14.378906-3.957031 29.523437-6.074219 45.152344-6.074219zm0 0" fill="#bfbfbf"/><path d="m196.304688 121.046875h-106.453126c-45.480468 0-82.351562 36.871094-82.351562 82.351563 0 45.480468 36.871094 82.351562 82.351562 82.351562h106.453126zm0 0" fill="#ff4a59"/><path d="m428.355469 399.296875c-12.667969 0-22.941407-10.269531-22.941407-22.941406v-345.914063c0-12.667968 10.273438-22.941406 22.941407-22.941406 12.671875 0 22.945312 10.273438 22.945312 22.941406v345.914063c0 12.671875-10.273437 22.941406-22.945312 22.941406zm0 0" fill="#65bafc"/><path d="m232.699219 169.96875v19.554688c0 5.84375-4.738281 10.578124-10.582031 10.578124h-62.175782c-11.242187 0-20.355468-9.113281-20.355468-20.355468 0-11.242188 9.113281-20.359375 20.355468-20.359375h62.175782c5.84375 0 10.582031 4.738281 10.582031 10.582031zm0 0" fill="#daedff"/><path d="m196.308594 159.386719v40.714843h-36.367188c-11.242187 0-20.355468-9.113281-20.355468-20.355468 0-11.242188 9.113281-20.359375 20.355468-20.359375zm0 0" fill="#8ecbfd"/><path d="m512 203.398438c0-30.9375-23.015625-56.527344-53.199219-60.222657v-112.734375c0-16.785156-13.65625-30.441406-30.441406-30.441406-16.125 0-29.355469 12.605469-30.375 28.476562-33.96875 5.179688-65.421875 20.042969-91.164063 43.121094-30.171874 27.050782-69.421874 41.949219-110.515624 41.949219h-41.042969c-4.144531 0-7.5 3.359375-7.5 7.5 0 4.144531 3.355469 7.5 7.5 7.5h33.542969v23.339844h-28.859376c-15.359374 0-27.855468 12.496093-27.855468 27.859375 0 15.359375 12.496094 27.859375 27.855468 27.859375h28.859376v70.644531h-20.304688v-21.753906c0-4.140625-3.355469-7.5-7.5-7.5s-7.5 3.359375-7.5 7.5v21.753906h-16.332031v-21.753906c0-4.140625-3.359375-7.5-7.5-7.5-4.144531 0-7.5 3.359375-7.5 7.5v21.753906h-16.335938v-21.753906c0-4.140625-3.355469-7.5-7.5-7.5-4.140625 0-7.5 3.359375-7.5 7.5v21.753906h-.980469c-41.273437 0-74.851562-33.578125-74.851562-74.851562 0-41.273438 33.578125-74.851563 74.851562-74.851563h30.886719c4.144531 0 7.5-3.355469 7.5-7.5 0-4.140625-3.355469-7.5-7.5-7.5h-30.886719c-49.542968 0-89.851562 40.308594-89.851562 89.851563 0 40.230468 26.578125 74.371093 63.097656 85.785156l-36.636718 115.449218c-2.472657 7.796876-1.121094 16.050782 3.707031 22.648438s12.285156 10.382812 20.464843 10.382812h42.925782c21.53125 0 40.371094-13.789062 46.882812-34.3125l4.441406-13.992187c1.25-3.945313-.933593-8.164063-4.882812-9.414063-3.945312-1.25-8.164062.933594-9.414062 4.878907l-4.441407 13.992187c-4.527343 14.261719-17.621093 23.847656-32.585937 23.847656h-16.007813l25.9375-81.738281h41.027344l-2.976563 9.378907c-1.253906 3.945312.933594 8.164062 4.878907 9.414062.757812.242188 1.519531.355469 2.273437.355469 3.179688 0 6.132813-2.042969 7.144532-5.234375l19.546874-61.589844h20.921876c41.09375 0 80.34375 14.898438 110.515624 41.949219 25.753907 23.089843 57.195313 37.941406 91.164063 43.117187 1.015625 15.875 14.246094 28.484375 30.375 28.484375 16.785156 0 30.441406-13.660156 30.441406-30.445312v-112.730469c30.1875-3.699219 53.199219-29.285156 53.199219-60.226562zm-308.1875-36.511719h18.308594c1.699218 0 3.082031 1.378906 3.082031 3.078125v19.558594c0 1.699218-1.382813 3.082031-3.082031 3.082031h-18.308594zm-43.867188 25.71875c-7.089843 0-12.855468-5.769531-12.855468-12.863281 0-7.089844 5.765625-12.855469 12.855468-12.855469h28.859376v25.71875zm-10.671874 133.320312h-51.273438c-3.269531 0-6.160156 2.113281-7.148438 5.230469l-29.039062 91.507812h-11.179688c-3.34375 0-6.390624-1.546874-8.359374-4.242187-1.972657-2.695313-2.523438-6.066406-1.515626-9.25l37.042969-116.734375c3.941407.53125 7.964844.8125 12.050781.8125h69.792969zm294.527343 50.429688c0 8.515625-6.929687 15.441406-15.441406 15.441406-8.515625 0-15.445313-6.925781-15.445313-15.441406v-248.261719c0-4.144531-3.355468-7.5-7.5-7.5-4.140624 0-7.5 3.355469-7.5 7.5v235.023438c-30.183593-5.050782-58.101562-18.484376-81.078124-39.085938-31.089844-27.871094-70.976563-43.910156-113.03125-45.621094v-70.804687h18.316406c9.972656 0 18.082031-8.113281 18.082031-18.082031v-19.554688c0-9.972656-8.109375-18.082031-18.082031-18.082031h-18.316406v-23.496094c42.054687-1.710937 81.941406-17.753906 113.03125-45.625 22.96875-20.589844 50.898437-34.027344 81.078124-39.082031v49.886718c0 4.144532 3.359376 7.5 7.5 7.5 4.144532 0 7.5-3.355468 7.5-7.5v-63.128906c0-8.511718 6.929688-15.441406 15.445313-15.441406 8.511719 0 15.441406 6.929688 15.441406 15.441406zm15-127.878907v-90.15625c21.808594 3.574219 38.199219 22.421876 38.199219 45.078126 0 22.660156-16.394531 41.503906-38.199219 45.078124zm0 0"/></svg>